<?xml version="1.0" encoding="UTF-8" standalone="no"?>
<svg
   xmlns:dc="http://purl.org/dc/elements/1.1/"
   xmlns:cc="http://creativecommons.org/ns#"
   xmlns:rdf="http://www.w3.org/1999/02/22-rdf-syntax-ns#"
   xmlns:svg="http://www.w3.org/2000/svg"
   xmlns="http://www.w3.org/2000/svg"
   xmlns:sodipodi="http://sodipodi.sourceforge.net/DTD/sodipodi-0.dtd"
   xmlns:inkscape="http://www.inkscape.org/namespaces/inkscape"
   id="Layer_1"
   xml:space="preserve"
   height="74.9"
   viewBox="0 0 378.5 74.900002"
   width="378.5"
   version="1.1"
   y="0px"
   x="0px"
   inkscape:version="0.91 r13725"
   sodipodi:docname="Kapila Logo_business card6_outline_Object All White.svg"><defs
     id="defs26" /><sodipodi:namedview
     pagecolor="#ffffff"
     bordercolor="#666666"
     borderopacity="1"
     objecttolerance="10"
     gridtolerance="10"
     guidetolerance="10"
     inkscape:pageopacity="0"
     inkscape:pageshadow="2"
     inkscape:window-width="1366"
     inkscape:window-height="716"
     id="namedview24"
     showgrid="false"
     showborder="false"
     inkscape:zoom="0.76089828"
     inkscape:cx="189.25"
     inkscape:cy="37.450001"
     inkscape:window-x="-8"
     inkscape:window-y="-8"
     inkscape:window-maximized="1"
     inkscape:current-layer="g6" /><metadata
     id="metadata57"><rdf:RDF><cc:Work
         rdf:about=""><dc:format>image/svg+xml</dc:format><dc:type
           rdf:resource="http://purl.org/dc/dcmitype/StillImage" /><dc:title></dc:title></cc:Work></rdf:RDF></metadata><style
     id="style3"
     type="text/css">
	.st0{fill:#E54B21;}
	.st1{opacity:0.95;}
</style><g
     id="g5"
     fill="#fff"
     transform="translate(-112.4,-356.1)"><g
       id="g6"><path
         id="path7"
         d="m156 370.3v2.5l-17.4 19.2 17.4 19.2v2.5h-10.6l-15.5-16.7h-7.7v16.8h-9.8v-57.7h9.8v31h7.7l15.5-16.8h10.6z"
         class="st0"
         style="fill:#ffffff" /><path
         id="path9"
         d="m204.9 380.7v33.1h-33.9c-5.7 0-10.3-4.6-10.3-10.3v-16.3h34.3v-6.4c0-0.3-0.2-0.5-0.5-0.5h-33.8v-9.8h33.8c5.7-0.2 10.4 4.5 10.4 10.2zm-9.9 16.3h-24.5v6.5c0 0.3 0.2 0.5 0.5 0.5h24v-7z"
         class="st0"
         style="fill:#ffffff" /><path
         id="path11"
         d="m257.1 380.7v22.8c0 5.7-4.6 10.3-10.3 10.3h-24v17.2h-9.8v-60.7h33.8c5.6 0 10.3 4.7 10.3 10.4zm-9.9 0c0-0.3-0.2-0.5-0.5-0.5h-23.5c-0.3 0-0.5 0.2-0.5 0.5v22.8c0 0.3 0.2 0.5 0.5 0.5h23.5c0.3 0 0.5-0.2 0.5-0.5v-22.8z"
         class="st0"
         style="fill:#ffffff" /><path
         id="path13"
         d="m272.4 356.1v9.9h-9.8v-9.9h9.8zm-9.9 14.2h9.8v43.5h-9.8v-43.5z"
         class="st0"
         style="fill:#ffffff" /><path
         id="path15"
         d="m289.9 356.1v47.4c0 0.3 0.1 0.5 0.5 0.5h8.8v9.8h-8.8c-5.7 0-10.3-4.6-10.3-10.3v-47.4h9.8z"
         class="st0"
         style="fill:#ffffff" /><path
         id="path17"
         d="m350 380.7v33.1h-33.8c-5.7 0-10.3-4.6-10.3-10.3v-16.3h34.3v-6.4c0-0.3-0.2-0.5-0.5-0.5h-33.8v-9.8h33.8c5.6-0.2 10.3 4.5 10.3 10.2zm-9.8 16.3h-24.5v6.5c0 0.3 0.2 0.5 0.5 0.5h24v-7z"
         class="st0"
         style="fill:#ffffff" /></g><path
       id="path19"
       d="m381.5 388.3c3.9 0 5.8 2.3 5.8 6.3v0.8h-3.7v-1c0-1.8-0.7-2.5-2-2.5s-2 0.7-2 2.5 0.8 3.2 3.4 5.5c3.3 2.9 4.4 5 4.4 7.9 0 4-2 6.3-5.9 6.3s-5.9-2.3-5.9-6.3v-1.5h3.7v1.8c0 1.8 0.8 2.4 2.1 2.4s2.1-0.6 2.1-2.4-0.8-3.2-3.4-5.5c-3.3-2.9-4.4-5-4.4-7.9 0-4.1 2-6.4 5.8-6.4z" /><path
       id="path21"
       d="m389.3 394.7c0-4 2.1-6.3 6-6.3s6 2.3 6 6.3v13.1c0 4-2.1 6.3-6 6.3s-6-2.3-6-6.3v-13.1zm4 13.3c0 1.8 0.8 2.5 2.1 2.5s2.1-0.7 2.1-2.5v-13.6c0-1.8-0.8-2.5-2.1-2.5s-2.1 0.7-2.1 2.5v13.6z" /><path
       id="path23"
       d="m403.9 388.6h4v21.6h6.5v3.6h-10.5v-25.2z" /><path
       id="path25"
       d="m419.9 388.6v19.4c0 1.8 0.8 2.4 2.1 2.4s2.1-0.6 2.1-2.4v-19.4h3.7v19.2c0 4-2 6.3-5.9 6.3s-5.9-2.3-5.9-6.3v-19.2h3.9z" /><path
       id="path27"
       d="m429.3 388.6h12.2v3.6h-4.1v21.6h-4v-21.6h-4.1v-3.6z" /><path
       id="path29"
       d="m443.2 388.6h4v25.2h-4v-25.2z" /><path
       id="path31"
       d="m449.8 394.7c0-4 2.1-6.3 6-6.3s6 2.3 6 6.3v13.1c0 4-2.1 6.3-6 6.3s-6-2.3-6-6.3v-13.1zm3.9 13.3c0 1.8 0.8 2.5 2.1 2.5s2.1-0.7 2.1-2.5v-13.6c0-1.8-0.8-2.5-2.1-2.5s-2.1 0.7-2.1 2.5v13.6z" /><path
       id="path33"
       d="m467.9 395.6-0.1 18.2h-3.6v-25.2h5l4 15.1h0.1v-15.1h3.5v25.2h-4.1l-4.8-18.2z" /><path
       id="path35"
       d="m485 388.3c3.9 0 5.8 2.3 5.8 6.3v0.8h-3.7v-1c0-1.8-0.7-2.5-2-2.5s-2 0.7-2 2.5 0.8 3.2 3.4 5.5c3.3 2.9 4.4 5 4.4 7.9 0 4-2 6.3-5.9 6.3s-5.9-2.3-5.9-6.3v-1.5h3.7v1.8c0 1.8 0.8 2.4 2.1 2.4s2.1-0.6 2.1-2.4-0.8-3.2-3.4-5.5c-3.3-2.9-4.4-5-4.4-7.9 0-4.1 2-6.4 5.8-6.4z" /></g><g
     id="g37"
     fill="#fff"
     transform="translate(-112.4,-356.1)"><rect
       id="rect39"
       opacity=".95"
       class="st1"
       transform="matrix(0,1,-1,0,758,29)"
       height="1"
       width="79"
       y="393"
       x="325"
       fill="#fff" /></g></svg>